<svg width="17" height="17" viewBox="0 0 17 17" fill="none" xmlns="http://www.w3.org/2000/svg">
<path d="M13.6231 7.578V4.578" stroke="black" stroke-linecap="round" stroke-linejoin="round"/>
<path d="M15.1231 6.078H12.1231" stroke="black" stroke-linecap="round" stroke-linejoin="round"/>
<path d="M10.6231 2.078V4.078" stroke="black" stroke-linecap="round" stroke-linejoin="round"/>
<path d="M11.6231 3.078H9.62314" stroke="black" stroke-linecap="round" stroke-linejoin="round"/>
<path d="M13.6668 10.1155C12.6851 10.3908 11.6479 10.3998 10.6616 10.1417C9.67527 9.88349 8.77545 9.36745 8.05453 8.64653C7.33362 7.92561 6.81758 7.0258 6.55942 6.03949C6.30126 5.05318 6.31028 4.01593 6.58555 3.03426C5.61772 3.30365 4.73735 3.8219 4.03214 4.53741C3.32693 5.25292 2.8215 6.1407 2.56617 7.11234C2.31085 8.08398 2.31455 9.10556 2.57691 10.0753C2.83927 11.0451 3.35113 11.9292 4.06151 12.6396C4.77189 13.3499 5.65599 13.8618 6.62575 14.1242C7.59551 14.3865 8.61709 14.3902 9.58873 14.1349C10.5604 13.8796 11.4482 13.3741 12.1637 12.6689C12.8792 11.9637 13.3974 11.0833 13.6668 10.1155Z" stroke="black" stroke-linecap="round" stroke-linejoin="round"/>
</svg>
